<svg width="88" height="88" viewBox="0 0 88 88" fill="none" xmlns="http://www.w3.org/2000/svg">
<path d="M59.4773 48.201C61.9095 48.201 63.6784 46.211 63.6784 44C63.6784 41.7889 61.6884 39.799 59.4773 39.799C57.4874 39.799 55.9397 41.1256 55.4975 42.6733H45.5477V32.7236C47.3165 32.2814 48.4221 30.5125 48.4221 28.7437C48.4221 26.3115 46.4321 24.5427 44.2211 24.5427C41.7889 24.5427 40.0201 26.5326 40.0201 28.7437C40.0201 30.7336 41.3467 32.2814 42.8944 32.7236V42.6733H32.9447C32.5025 40.9045 30.7336 39.799 28.9648 39.799C26.5326 39.799 24.7638 41.7889 24.7638 44C24.7638 46.211 26.7537 48.201 28.9648 48.201C30.9547 48.201 32.5025 46.8743 32.9447 45.3266H42.8944V55.2764C41.1256 55.7186 40.0201 57.4874 40.0201 59.2563C40.0201 61.6884 42.01 63.4573 44.2211 63.4573C46.6532 63.4573 48.4221 61.4673 48.4221 59.2563C48.4221 57.2663 47.0954 55.7186 45.5477 55.2764V45.3266H55.2763C55.9397 47.0954 57.4874 48.201 59.4773 48.201ZM44 26.9748C44.8844 26.9748 45.5477 27.6382 45.5477 28.5226C45.5477 29.407 44.8844 30.0703 44 30.0703C43.1155 30.0703 42.4522 29.407 42.4522 28.5226C42.4522 27.6382 43.1155 26.9748 44 26.9748ZM28.7437 45.7688C27.8593 45.7688 27.1959 45.1055 27.1959 44.2211C27.1959 43.3367 27.8593 42.6733 28.7437 42.6733C29.6281 42.6733 30.2914 43.3367 30.2914 44.2211C30.2914 45.1055 29.6281 45.7688 28.7437 45.7688ZM44 61.0251C43.1155 61.0251 42.4522 60.3618 42.4522 59.4774C42.4522 58.5929 43.1155 57.9296 44 57.9296C44.8844 57.9296 45.5477 58.5929 45.5477 59.4774C45.5477 60.3618 44.8844 61.0251 44 61.0251ZM59.4773 42.4522C60.3618 42.4522 61.0251 43.1155 61.0251 44C61.0251 44.8844 60.3618 45.5477 59.4773 45.5477C58.5929 45.5477 57.9296 44.8844 57.9296 44C57.7085 43.1155 58.3718 42.4522 59.4773 42.4522Z" fill="#FFC800"/>
<path d="M67.2161 65.4472L64.5628 62.794C66.5528 60.5829 68.1005 58.3719 69.206 55.7186L72.7437 57.0452C71.4171 60.1407 69.6482 63.0151 67.2161 65.4472ZM53.9497 67.4372C47.5377 70.0905 40.6834 70.0905 34.4925 67.6583C25.206 63.8995 18.794 54.6131 18.794 44.2211C18.794 33.8291 25.206 24.7638 34.2714 21.005C40.6834 18.3518 47.5377 18.3518 53.7286 20.7839C63.0151 24.5427 69.4271 33.8291 69.4271 44.2211C69.4271 54.392 63.0151 63.4573 53.9497 67.4372ZM14.3719 55.0553C13.2663 51.9598 12.603 48.6432 12.3819 45.3266H16.1407C16.3618 48.201 16.804 51.0754 17.9095 53.7286L14.3719 55.0553ZM20.7839 22.5528L23.4372 25.206C21.4472 27.4171 19.8995 29.6281 18.794 32.2814L15.2563 30.9548C16.5829 27.8593 18.5729 25.206 20.7839 22.5528ZM14.3719 33.3869L17.6884 34.7136C16.804 37.3668 16.3618 40.0201 16.1407 42.6734H12.3819C12.603 39.5779 13.2663 36.4824 14.3719 33.3869ZM18.794 56.1608C19.8995 58.593 21.4472 60.804 23.4372 63.0151L20.7839 65.6683C18.5729 63.2362 16.804 60.5829 15.4774 57.7085L18.794 56.1608ZM32.2814 69.4271L30.9548 72.7437C27.8593 71.4171 25.206 69.4271 22.5528 67.2161L25.206 64.5628C27.4171 66.5528 29.8492 68.1005 32.2814 69.4271ZM42.6734 71.8593V75.6181C39.3568 75.397 36.2613 74.9548 33.1658 73.8493L34.4925 70.3116C37.3668 71.196 40.0201 71.8593 42.6734 71.8593ZM73.6281 32.9447C74.7337 36.0402 75.397 39.3568 75.6181 42.6734H71.8593C71.6382 39.799 71.196 36.9246 70.0905 34.2714L73.6281 32.9447ZM69.206 32.0603C68.1005 29.6281 66.5528 27.4171 64.5628 25.206L67.2161 22.5528C69.4271 24.9849 71.196 27.6382 72.5226 30.5126L69.206 32.0603ZM55.7186 18.794L57.0452 15.2563C60.1407 16.5829 62.794 18.5729 65.4472 20.7839L62.794 23.4372C60.804 21.4472 58.3719 19.8995 55.7186 18.794ZM45.3266 16.1407V12.3819C48.6432 12.603 51.7387 13.2663 54.8342 14.3719L53.2864 17.6884C50.8543 16.804 47.9799 16.3618 45.3266 16.1407ZM73.8493 54.8342L70.3116 53.5075C71.196 50.8543 71.6382 48.201 71.8593 45.5477H75.6181C75.6181 48.6432 74.9548 51.7387 73.8493 54.8342ZM32.9447 14.3719C36.0402 13.2663 39.3568 12.603 42.6734 12.3819V16.1407C39.799 16.3618 36.9246 16.804 34.2714 17.9095L32.9447 14.3719ZM30.5126 15.4774L32.0603 19.0151C29.6281 20.1206 27.4171 21.6683 25.206 23.6583L22.5528 21.005C24.9849 18.5729 27.6382 16.804 30.5126 15.4774ZM42.6734 78.2714V85.5678C32.5025 85.3467 22.995 81.3668 15.4774 74.2915C16.804 72.9648 17.9095 71.8593 20.5628 69.206C26.5327 74.5126 34.2714 77.8291 42.6734 78.2714ZM9.72864 42.6734C5.96985 42.6734 4.64322 42.6734 2.65327 42.6734C2.87437 32.5025 7.07538 22.7739 13.9296 15.4774L19.0151 20.5628C13.4874 26.5327 10.1709 34.2714 9.72864 42.6734ZM67.4372 19.0151C61.6884 13.7085 53.9497 10.1709 45.3266 9.94975C45.3266 5.96985 45.3266 4.86432 45.3266 2.65327C55.4975 2.87437 65.005 6.85427 72.5226 13.9296C70.9749 15.2563 69.8693 16.3618 67.4372 19.0151ZM15.6985 13.9296C17.0251 12.8241 18.3518 11.4975 19.6784 10.6131C20.3417 10.1709 20.3417 9.50754 19.8995 8.84422C19.6784 8.1809 18.794 7.9598 18.1307 8.40201C6.85427 16.5829 0 29.8492 0 44C0 68.3216 19.6784 88 44 88C50.191 88 55.9397 86.6734 61.4673 84.4623C62.1307 84.2412 62.3518 83.3568 62.1307 82.6935C61.9095 82.0302 61.0251 81.809 60.3618 82.0301C55.4975 84.0201 50.4121 85.3467 45.1055 85.3467C45.1055 83.3568 45.1055 81.809 45.1055 78.0502C53.5075 77.8291 61.2462 74.2915 67.2161 68.9849L72.3015 74.0704C70.0905 76.0603 67.6583 78.0503 65.005 79.598C64.3417 80.0402 64.1206 80.7035 64.5628 81.3668C65.005 82.0302 65.6683 82.2513 66.3317 81.809C79.8191 73.8492 88 59.4774 88 43.7789C88 19.4573 68.1005 0 44 0C36.7035 0 29.1859 1.76884 22.7739 5.52764C22.1106 5.74874 21.8894 6.63317 22.3317 7.29648C22.7739 7.9598 23.4372 8.1809 24.1005 7.73869C29.8492 4.64322 36.2613 2.87437 42.8945 2.65327V9.94975C34.4925 10.1709 26.7538 13.7085 20.7839 19.0151C20.7839 19.0151 17.2462 15.2563 15.6985 13.9296ZM69.206 20.7839C69.8693 20.1206 72.9648 17.0251 74.2915 15.6985C81.3668 22.995 85.1256 32.7236 85.5678 42.8945C83.5779 42.8945 78.4925 42.8945 78.4925 42.8945C78.0503 34.2714 74.5126 26.5327 69.206 20.7839ZM13.9296 72.5226C6.85427 65.2261 3.09548 55.4975 2.65327 45.3266H9.72864C9.94975 53.7286 13.4874 61.4673 18.794 67.4372C19.0151 67.4372 15.2563 70.9749 13.9296 72.5226ZM55.0553 73.6281C51.9598 74.7337 48.6432 75.397 45.3266 75.6181V71.8593C48.201 71.6382 51.0754 71.196 53.7286 70.0905L55.0553 73.6281ZM57.4874 72.7437L55.9397 69.206C58.3719 68.1005 60.5829 66.5528 62.794 64.5628L65.4472 67.2161C63.0151 69.4271 60.3618 71.196 57.4874 72.7437ZM69.206 67.4372C74.5126 61.6884 78.0503 53.9497 78.2714 45.3266H85.3467C85.1256 55.4975 80.9246 65.2261 74.0704 72.5226C72.9648 71.196 69.8693 67.8794 69.206 67.4372Z" fill="#FFC800"/>
</svg>
