<svg width="120" height="120" viewBox="0 0 120 120" fill="none" xmlns="http://www.w3.org/2000/svg">
<path d="M112 85.675V30C112 26.675 109.325 24 106 24H92V2C92 0.9 91.1 0 90 0C89.65 0 89.3 0.1 89 0.275L86.15 1.9C79.775 5.55 71.975 5.775 65.4 2.475L60.875 0.225C60.3 -0.05 59.65 -0.05 59.075 0.225L54.575 2.475C48 5.775 40.2 5.55 33.825 1.9L31 0.275C30.05 -0.275 28.825 0.05 28.275 1C28.1 1.3 28 1.65 28 2V24H14C10.675 24 8 26.675 8 30V85.675L0 109.675V114C0 117.325 2.675 120 6 120H114C117.325 120 120 117.325 120 114V109.675L112 85.675ZM75.55 108L73.925 101.525C73.7 100.625 72.9 100 71.975 100H47.975C47.05 100 46.25 100.625 46.025 101.525L44.4 108H4.775L11.45 88H108.575L115.25 108H75.55ZM71.45 108H48.575L49.575 104H70.45L71.45 108ZM32 5.45C39.525 9.7 48.675 9.925 56.375 6.05L59.975 4.25L63.6 6.05C71.325 9.925 80.475 9.7 88 5.45V27.2C88.025 44.2 78.65 59.8 63.65 67.8L60 69.75L56.35 67.8C41.35 59.825 31.975 44.2 32 27.2V5.45ZM54.475 71.325L59.075 73.775C59.675 74.1 60.375 74.1 60.95 73.775L65.55 71.325C79.075 64.125 88.55 51.1 91.225 36H100V76H20V36H28.8C31.475 51.1 40.95 64.125 54.475 71.325ZM12 30C12 28.9 12.9 28 14 28H28.025C28.05 29.35 28.125 30.675 28.25 32H18C16.9 32 16 32.9 16 34V78C16 79.1 16.9 80 18 80H102C103.1 80 104 79.1 104 78V34C104 32.9 103.1 32 102 32H91.75C91.875 30.675 91.95 29.35 91.975 28H106C107.1 28 108 28.9 108 30V84H12V30ZM114 116H6C4.9 116 4 115.1 4 114V112H116V114C116 115.1 115.1 116 114 116Z" fill="white"/>
<path d="M69.9994 92H73.9994V96H69.9994V92Z" fill="white"/>
<path d="M14.0002 92H18.0002V96H14.0002V92Z" fill="white"/>
<path d="M22.0001 92H26.0001V96H22.0001V92Z" fill="white"/>
<path d="M30 92H34V96H30V92Z" fill="white"/>
<path d="M37.9999 92H41.9999V96H37.9999V92Z" fill="white"/>
<path d="M77.9993 92H81.9993V96H77.9993V92Z" fill="white"/>
<path d="M86.001 92H90.001V96H86.001V92Z" fill="white"/>
<path d="M93.999 92H97.999V96H93.999V92Z" fill="white"/>
<path d="M45.9998 92H49.9998V96H45.9998V92Z" fill="white"/>
<path d="M53.9996 92H57.9996V96H53.9996V92Z" fill="white"/>
<path d="M61.9995 92H65.9995V96H61.9995V92Z" fill="white"/>
<path d="M102.001 92H106.001V96H102.001V92Z" fill="white"/>
<path d="M77.9993 99.9999H89.9993V104H77.9993V99.9999Z" fill="white"/>
<path d="M93.999 99.9999H97.999V104H93.999V99.9999Z" fill="white"/>
<path d="M102.001 99.9999H106.001V104H102.001V99.9999Z" fill="white"/>
<path d="M14.0002 99.9999H18.0002V104H14.0002V99.9999Z" fill="white"/>
<path d="M22.0001 99.9999H26.0001V104H22.0001V99.9999Z" fill="white"/>
<path d="M30 99.9999H42V104H30V99.9999Z" fill="white"/>
<path d="M58.2259 64.2502L59.0509 64.7002C59.6509 65.0252 60.3509 65.0252 60.9259 64.7002L61.7509 64.2502C75.4509 56.9752 84.0009 42.7002 83.9759 27.2002V14.0752C83.9759 12.9752 83.0759 12.0752 81.9759 12.0752C81.8259 12.0752 81.7009 12.1002 81.5509 12.1252C74.8759 13.5502 67.9259 12.6752 61.8009 9.65024L60.8509 9.17524C60.2759 8.90024 59.6259 8.90024 59.0509 9.17524L58.1259 9.62524C52.0009 12.6502 45.0509 13.5502 38.3759 12.1252C37.3009 11.9002 36.2259 12.6002 36.0009 13.6752C35.9759 13.8002 35.9509 13.9502 35.9509 14.0752V27.2002C35.9759 42.7252 44.5259 56.9752 58.2259 64.2502ZM40.0009 16.4502C46.8259 17.4002 53.8009 16.2752 59.9759 13.2002L60.0009 13.1752L60.0509 13.2002C66.2259 16.2752 73.1759 17.4002 80.0009 16.4502V27.2002C80.0259 41.2002 72.3259 54.0502 60.0009 60.6752C47.6759 54.0502 39.9759 41.2002 40.0009 27.2002V16.4502Z" fill="white"/>
<path d="M55.9998 43.9999C56.5248 43.9999 57.0498 43.7999 57.4248 43.4249L74.1498 26.6999C74.9498 25.9249 74.9748 24.6749 74.1998 23.8749C73.4248 23.0749 72.1748 23.0499 71.3748 23.8249C71.3498 23.8499 71.3498 23.8499 71.3248 23.8749L55.9998 39.1749L49.7498 32.9249C48.9498 32.1499 47.6998 32.1749 46.9248 32.9749C46.1748 33.7499 46.1748 34.9749 46.9248 35.7499L54.5748 43.3999C54.9498 43.7999 55.4748 43.9999 55.9998 43.9999Z" fill="white"/>
</svg>
