<svg width="64" height="64" viewBox="0 0 64 64" fill="none" xmlns="http://www.w3.org/2000/svg">
<path d="M61.6621 19.8721L56.4018 21.9178C57.7169 25.1324 58.4475 28.4932 58.4475 32C58.4475 46.6119 46.6119 58.4475 32 58.4475C17.3881 58.4475 5.55251 46.6119 5.55251 32C5.55251 17.3881 17.3881 5.55251 32 5.55251C35.5069 5.55251 38.8676 6.2831 42.0822 7.59817L44.274 2.48402C40.3288 0.876712 36.2374 0 32 0C14.3196 0 0 14.3196 0 32C0 49.6804 14.3196 64 32 64C49.6804 64 64 49.6804 64 32C64 27.7626 63.2694 23.6712 61.6621 19.8721Z" fill="white"/>
<path d="M27.3246 42.2282V21.6255H22.2105L15.7812 23.9634L16.3657 27.7625L20.8954 26.8858V42.2282H27.3246Z" fill="white"/>
<path d="M32.1455 34.4838C31.4149 35.5066 30.9766 36.3834 30.9766 37.4062C30.9766 39.1596 31.7072 40.4747 33.3145 41.3514C34.9218 42.2281 36.8213 42.6665 39.4514 42.6665C41.9355 42.6665 44.1272 42.082 45.7346 41.0592C47.3419 40.0363 48.2186 38.5751 48.2186 36.5295C48.2186 35.2144 47.9263 34.1916 47.1957 33.1687C46.4651 32.292 45.4423 31.4153 43.835 30.6847C46.1729 29.2235 47.3419 27.7624 47.3419 26.155C47.3419 22.7943 44.8578 21.187 39.7437 21.187C37.4058 21.187 35.5062 21.6254 34.0451 22.5021C32.4377 23.3788 31.7072 24.84 31.7072 26.5934C31.7072 27.4701 31.9994 28.4929 32.5839 29.3697C33.1683 30.3925 34.0451 31.1231 35.214 31.8537C33.8989 32.7304 32.8761 33.461 32.1455 34.4838ZM38.2825 25.4245C38.5747 25.1322 39.1592 24.9861 39.8898 24.9861C40.7665 24.9861 41.351 25.1322 41.7893 25.4245C42.2277 25.7167 42.3738 26.3012 42.3738 27.0318C42.3738 27.9085 41.7893 28.7852 40.6204 29.5158C39.7437 29.2235 39.0131 28.7852 38.5747 28.3468C37.9903 27.9085 37.8441 27.4701 37.8441 26.8856C37.698 26.155 37.8441 25.7167 38.2825 25.4245ZM37.4058 35.3605C37.8441 34.9222 38.2825 34.3377 39.0131 33.8993C40.0359 34.4838 40.9126 34.9222 41.351 35.3605C41.7893 35.7989 42.0816 36.3834 42.0816 36.9678C42.0816 37.6984 41.7893 38.1368 41.351 38.5751C40.9126 39.0135 40.3282 39.1596 39.5976 39.1596C38.867 39.1596 38.2825 39.0135 37.698 38.5751C37.1135 38.1368 36.8213 37.6984 36.8213 36.9678C36.8213 36.3834 36.9674 35.945 37.4058 35.3605Z" fill="white"/>
<path d="M49.534 18.8492H55.3787V14.4656H59.7623V8.62087H55.3787V4.2373H49.534V8.62087H45.1504V14.4656H49.534V18.8492Z" fill="white"/>
</svg>
