<svg width="84" height="89" viewBox="0 0 84 89" fill="none" xmlns="http://www.w3.org/2000/svg">
<path d="M64.5155 83.4724C64.0835 85.2412 62.5713 86.3467 60.8431 86.3467C60.4111 86.3467 60.1951 86.3467 59.763 86.1256L35.7847 79.4925H47.8819C48.746 79.4925 49.6101 79.2714 50.2581 79.0502L60.4111 81.9246L76.8287 19.3518L54.1465 12.9397V8.51759L64.2995 11.392C64.9475 11.6131 65.5956 11.1709 65.8116 10.5075C66.0276 9.84422 65.5956 9.1809 64.9475 8.9598L53.9305 5.86432C53.2824 2.98995 50.6902 1 47.8819 1H36.6488C36.0008 1 35.3527 1.66332 35.3527 2.32663C35.3527 2.98995 36.0008 3.65327 36.6488 3.65327H47.8819C50.0421 3.65327 51.7703 5.42211 51.7703 7.63317V73.3015C51.7703 75.5126 50.0421 77.2814 47.8819 77.2814H16.5589C15.9108 77.0603 15.2628 77.7236 15.2628 78.3869C15.2628 79.0503 15.9108 79.7136 16.5589 79.7136H26.0638L59.115 88.7789C59.547 89 60.1951 89 60.8431 89C63.6514 89 66.2437 87.01 66.8917 84.1357L67.7558 80.598C67.9718 79.9347 67.5398 79.2714 66.8917 79.0502C66.2437 78.8291 65.5956 79.2714 65.3796 79.9347L64.5155 83.4724ZM58.6829 78.8291L52.8504 77.2814C53.7145 76.1759 54.1465 75.0704 54.1465 73.7437L61.2752 69.5427L58.6829 78.8291ZM54.1465 37.9246L72.2922 27.3116L69.484 37.9246L54.1465 46.7688V37.9246ZM54.1465 49.8643L68.6199 41.2412L65.8116 51.8543L54.1465 58.7085V49.8643ZM54.1465 61.5829L64.9475 55.1709L62.1393 65.7839L54.1465 70.6482V61.5829ZM73.1563 23.5528L54.1465 34.8291V25.9849L66.0276 19.1307L74.0204 21.3417L73.1563 23.5528ZM62.3553 18.0251L54.1465 22.8894V15.8141L62.3553 18.0251Z" fill="#FFC800"/>
<path d="M78.9893 12.7186L69.7004 10.2865C69.0523 10.0654 68.4043 10.5076 68.1882 11.1709C67.9722 11.8342 68.4043 12.4975 69.0523 12.7186L78.3412 15.1508C80.0694 15.593 81.1495 17.1407 81.1495 18.9096C81.1495 19.3518 81.1495 19.5729 80.9335 20.0151L66.4601 75.0704C66.2441 75.7337 66.6761 76.397 67.3242 76.6181C67.9722 76.8392 68.6203 76.397 68.8363 75.7337L83.3097 20.6784C83.5257 20.2362 83.5257 19.5729 83.5257 18.9096C83.7417 16.0352 81.7975 13.603 78.9893 12.7186Z" fill="#FFC800"/>
<path d="M2.73385 73.3015V7.41207C2.73385 5.20101 4.46201 3.43217 6.62222 3.43217H31.6806C32.3287 3.43217 32.9767 2.76885 32.9767 2.10553C32.9767 1.44222 32.3287 0.7789 31.6806 0.7789H6.4062C2.94987 1.00001 0.141602 3.87438 0.141602 7.41207V73.0804C0.141602 76.6181 2.94987 79.4925 6.4062 79.4925H11.3747C12.0227 79.4925 12.6708 78.8292 12.6708 78.1658C12.6708 77.5025 12.0227 76.8392 11.3747 76.8392H6.4062C4.46201 77.0603 2.73385 75.2915 2.73385 73.3015Z" fill="#FFC800"/>
<path d="M27.1443 32.397C24.7681 29.9649 20.8797 30.186 18.5035 32.6182C16.1272 35.0503 16.1272 39.2513 18.5035 41.6835L26.0642 49.4222C26.7123 50.0855 27.7924 50.0855 28.4404 49.4222L36.0011 41.6835C38.3774 39.2513 38.3774 35.0503 36.0011 32.6182C33.4089 30.186 29.5205 30.186 27.1443 32.397ZM35.1371 37.2614C35.1371 38.3669 34.705 39.2513 34.057 39.9146L27.1443 46.99L20.2316 39.9146C19.5836 39.2513 19.1515 38.1458 19.1515 37.2614C19.1515 36.1558 19.5836 35.2714 20.2316 34.6081C20.8797 33.9448 21.9598 33.5026 22.8239 33.5026C23.904 33.5026 24.7681 33.9448 25.4161 34.6081L27.1443 36.3769L28.8725 34.6081C29.5205 33.9448 30.6006 33.5026 31.4647 33.5026C32.5448 33.5026 33.4089 33.9448 34.057 34.6081C34.705 35.2714 35.1371 36.1558 35.1371 37.2614Z" fill="#FFC800"/>
<path d="M16.1274 18.9096L11.807 6.74875H9.64675L5.54236 18.9096L7.91859 19.794L8.78267 17.804H13.1031L13.7511 19.794L16.1274 18.9096ZM9.64675 15.1508L10.9429 11.392L12.239 15.1508H9.64675Z" fill="#FFC800"/>
<path d="M48.7454 61.8041L46.3691 60.9196L45.5051 62.9096H41.1846L40.5366 60.9196L38.1603 61.8041L42.2647 73.9649H44.4249L48.7454 61.8041ZM42.2647 65.5629H44.857L43.3448 69.3216L42.2647 65.5629Z" fill="#FFC800"/>
<path d="M58.2518 39.9146C57.8198 39.2513 58.0358 38.5879 58.6839 38.1457C59.3319 37.7035 59.98 37.9246 60.4121 38.5879C60.8441 39.2513 60.6281 39.9146 59.98 40.3568C59.548 40.5779 58.6839 40.3568 58.2518 39.9146ZM62.7883 37.2613C62.3562 36.598 62.5723 35.9347 63.2203 35.4925C63.8684 35.0503 64.5165 35.2714 64.9485 35.9347C65.3805 36.598 65.1645 37.2613 64.5165 37.7035C63.8684 38.1457 63.0043 37.9246 62.7883 37.2613Z" fill="#FFC800"/>
<path d="M15.2622 74.4071C14.6142 74.4071 13.9661 73.7437 13.9661 73.0804C13.9661 72.4171 14.6142 71.7538 15.2622 71.7538C15.9103 71.7538 16.5583 72.4171 16.5583 73.0804C16.5583 73.9649 15.9103 74.4071 15.2622 74.4071ZM10.2937 74.4071H6.6214C5.75731 74.4071 5.32527 73.7437 5.32527 73.0804V69.3216C5.32527 68.6583 5.97334 67.995 6.6214 67.995C7.26946 67.995 7.91752 68.6583 7.91752 69.3216V71.9749H10.5098C11.1578 71.9749 11.8059 72.6382 11.8059 73.3015C11.5899 73.9649 10.9418 74.4071 10.2937 74.4071ZM6.40538 65.5628C5.75732 65.5628 5.10925 64.8995 5.10925 64.2362C5.10925 63.5729 5.75732 62.9096 6.40538 62.9096C7.05344 62.9096 7.7015 63.5729 7.7015 64.2362C7.7015 64.8995 7.05344 65.5628 6.40538 65.5628Z" fill="#FFC800"/>
</svg>
