<svg width="88" height="88" viewBox="0 0 88 88" fill="none" xmlns="http://www.w3.org/2000/svg">
<path d="M45.4342 20.5112C45.4342 19.629 44.7725 18.9674 43.8903 18.9674C30.2161 18.9674 18.968 30.2155 18.968 43.8897C18.968 44.7719 19.6297 45.4336 20.5119 45.4336C21.3941 45.4336 22.0557 44.7719 22.0557 43.8897C22.0557 31.7594 31.9806 21.8346 44.1109 21.8346C44.7725 22.0551 45.4342 21.3935 45.4342 20.5112Z" fill="#FFC800"/>
<path d="M43.8895 65.9448C43.0073 65.9448 42.3457 66.6065 42.3457 67.4887C42.3457 68.3709 43.0073 69.0325 43.8895 69.0325C57.5637 69.0325 68.8118 57.7844 68.8118 44.1102C68.8118 43.228 68.1502 42.5664 67.268 42.5664C66.3858 42.5664 65.7241 43.228 65.7241 44.1102C65.9447 56.2406 56.2404 65.9448 43.8895 65.9448Z" fill="#FFC800"/>
<path d="M86.9033 34.1913C85.8005 29.3392 84.0361 24.9281 81.3895 20.7377C81.3895 20.7377 81.3895 20.7377 81.169 20.5171C77.6401 15.0033 73.0085 10.3718 67.4948 6.84293C67.4948 6.84293 67.4948 6.84293 67.2742 6.62238C63.0837 3.97577 58.6727 2.21136 53.8206 1.1086C47.4246 -0.435258 40.5875 -0.435258 34.1915 1.1086C29.3394 2.21136 24.9283 4.19632 20.7379 6.62238C20.7379 6.62238 20.7379 6.62238 20.5173 6.84293C15.0035 10.3718 10.372 15.0033 6.84313 20.5171C6.84313 20.5171 6.84313 20.5171 6.62258 20.7377C3.97596 24.9281 2.21155 29.3392 1.10879 34.1913C-0.435068 40.5873 -0.435068 47.4244 1.10879 53.8203C2.21155 58.6725 4.19651 63.0835 6.62258 67.274C6.62258 67.4945 6.84313 67.4945 6.84313 67.7151C10.372 73.2289 15.0035 77.8604 20.5173 81.1687C20.5173 81.1687 20.5173 81.1687 20.7379 81.3893C24.9283 84.0359 29.3394 85.8003 33.9709 86.903C40.3669 88.4469 47.204 88.4469 53.6 86.903C58.2316 85.8003 62.8632 84.0359 66.8331 81.3893C66.8331 81.3893 66.8331 81.3893 67.0537 81.1687C72.5674 77.6399 77.199 73.0083 80.7278 67.7151C80.7278 67.7151 80.9484 67.4945 80.9484 67.274C83.595 63.0835 85.3594 58.6725 86.4622 53.8203C88.4472 47.4244 88.4472 40.5873 86.9033 34.1913ZM83.8156 33.5296L74.1113 36.8379C73.4496 33.7502 72.1263 30.6625 70.3619 27.7953L79.6251 23.1637C81.3895 26.472 82.7128 30.0008 83.8156 33.5296ZM71.9058 43.8955C71.9058 59.3341 59.3344 71.685 44.1163 71.685C28.6777 71.685 16.3268 59.1136 16.3268 43.8955C16.3268 28.6775 28.6777 16.1061 43.8958 16.1061C59.1138 16.1061 71.9058 28.6775 71.9058 43.8955ZM77.8607 20.7377L68.5975 25.3692C66.8331 23.1637 64.8481 21.1788 62.6426 19.4144L67.2742 10.1512C71.4647 13.0184 74.9935 16.5472 77.8607 20.7377ZM54.4822 4.19632C58.0111 5.07852 61.5399 6.62238 64.8481 8.60734L60.2166 17.8705C57.3494 16.1061 54.4822 14.7828 51.174 14.1211L54.4822 4.19632ZM51.6151 3.53466L48.3068 13.4595C46.7629 13.2389 45.4396 13.2389 43.8958 13.2389C42.5725 13.2389 41.2491 13.2389 39.7053 13.4595L36.397 3.53466C41.4697 2.65246 46.5424 2.65246 51.6151 3.53466ZM33.5298 4.19632L36.8381 13.9006C33.7504 14.5622 30.6627 15.8855 27.7955 17.6499L23.1639 8.38679C26.4722 6.62238 30.001 5.29907 33.5298 4.19632ZM20.7379 10.1512L25.3694 19.4144C23.1639 21.1788 21.179 23.1637 19.4146 25.3692L10.1514 20.7377C13.0186 16.5472 16.5474 13.0184 20.7379 10.1512ZM8.60754 23.1637L17.8707 27.7953C16.1063 30.6625 14.783 33.5296 14.1213 36.8379L4.41706 33.5296C5.29927 30.0008 6.62258 26.472 8.60754 23.1637ZM2.8732 43.8955C2.8732 41.4695 3.09375 38.8229 3.53486 36.3968L13.4597 39.7051C13.2391 41.2489 13.2391 42.5722 13.2391 43.8955C13.2391 45.2188 13.4597 46.7627 13.4597 48.086L3.53486 51.3943C3.09375 48.9682 2.8732 46.5422 2.8732 43.8955ZM4.19651 54.482L13.9008 51.1737C14.5624 54.2614 15.8857 57.3492 17.6501 60.2163L8.38699 64.8479C6.62258 61.5396 5.29927 58.0108 4.19651 54.482ZM10.1514 67.274L19.4146 62.6424C21.179 64.8479 23.1639 66.8329 25.3694 68.5973L20.7379 77.8604C16.5474 74.9933 13.0186 71.4644 10.1514 67.274ZM33.5298 83.8153C30.001 82.9331 26.4722 81.3892 23.1639 79.6248L27.7955 70.3617C30.6627 72.1261 33.5298 73.4494 36.8381 74.1111L33.5298 83.8153ZM36.397 84.2564L39.7053 74.3316C41.0286 74.5522 42.5725 74.5522 43.8958 74.5522C45.2191 74.5522 46.7629 74.3316 48.0862 74.3316L51.3945 84.2564C46.5424 85.3592 41.4697 85.3592 36.397 84.2564ZM54.4822 83.8153L51.174 74.1111C54.2617 73.4494 57.3494 72.1261 60.2166 70.3617L64.8481 79.6248C61.5399 81.3892 58.0111 82.7126 54.4822 83.8153ZM67.2742 77.8604L62.6426 68.5973C64.8481 66.8329 66.8331 64.8479 68.5975 62.6424L77.8607 67.274C74.9935 71.4644 71.4647 74.9933 67.2742 77.8604ZM79.4045 64.6273L70.1414 59.9958C71.9058 57.1286 73.2291 54.2614 73.8908 50.9532L83.595 54.2614C82.7128 58.0108 81.3895 61.5396 79.4045 64.6273ZM84.2567 51.6148L74.3319 48.3066C74.5524 46.9833 74.5524 45.4394 74.5524 44.1161C74.5524 42.7928 74.3319 41.2489 74.3319 39.9256L84.2567 36.6173C85.3594 41.4695 85.3594 46.5422 84.2567 51.6148Z" fill="#FFC800"/>
<path d="M42.5659 8.82201H45.4331C46.3153 8.82201 46.977 8.16036 46.977 7.27815C46.977 6.39594 46.3153 5.95484 45.4331 5.95484H42.5659C41.6837 5.95484 41.0221 6.6165 41.0221 7.4987C41.0221 8.38091 41.6837 8.82201 42.5659 8.82201Z" fill="#FFC800"/>
<path d="M20.5106 16.5413C20.5106 16.1002 20.0695 15.6591 19.4079 15.6591C18.9668 15.4385 18.5257 15.6591 18.0846 16.1002L16.0996 18.0852C15.6585 18.5263 15.438 19.1879 15.6585 19.629C15.8791 20.0701 16.3202 20.5112 16.9818 20.5112C17.4229 20.5112 17.6435 20.2907 18.0846 20.0701L20.0695 18.0852C20.5106 17.6441 20.7312 17.2029 20.5106 16.5413Z" fill="#FFC800"/>
<path d="M7.27781 41.0225C6.3956 41.0225 5.73395 41.6842 5.73395 42.5664V45.4336C5.73395 46.3158 6.3956 46.9774 7.27781 46.9774C8.16001 46.9774 8.82167 46.3158 8.82167 45.4336V42.5664C8.82167 41.6842 8.16001 41.0225 7.27781 41.0225Z" fill="#FFC800"/>
<path d="M18.0867 67.9298C17.4251 67.2682 16.5429 67.4887 16.1018 67.9298C15.4401 68.3709 15.4401 69.2531 16.1018 69.9148L18.0867 71.8998C18.7484 72.5614 19.6306 72.3409 20.0717 71.8998C20.7334 71.2381 20.7334 70.3559 20.0717 69.9148L18.0867 67.9298Z" fill="#FFC800"/>
<path d="M45.4331 79.1779H42.5659C41.6837 79.1779 41.0221 79.8395 41.0221 80.7217C41.0221 81.6039 41.6837 82.2656 42.5659 82.2656H45.4331C46.3153 82.2656 46.977 81.6039 46.977 80.7217C46.977 79.8395 46.3153 79.1779 45.4331 79.1779Z" fill="#FFC800"/>
<path d="M67.4888 71.2381C67.7094 71.6792 67.9299 72.1203 68.5916 72.3408C69.0327 72.5614 69.6943 72.3408 69.9149 71.8997L71.8998 69.9148C72.5615 69.2531 72.3409 68.3709 71.8998 67.9298C71.2382 67.2682 70.356 67.2682 69.9149 67.9298L67.9299 69.9148C67.4888 70.3559 67.2683 70.797 67.4888 71.2381Z" fill="#FFC800"/>
<path d="M80.7219 41.0225C79.8397 41.0225 79.1781 41.6842 79.1781 42.5664V45.4336C79.1781 46.3158 79.8397 46.9774 80.7219 46.9774C81.6041 46.9774 82.2658 46.3158 82.2658 45.4336V42.5664C82.0452 41.6842 81.3836 41.0225 80.7219 41.0225Z" fill="#FFC800"/>
<path d="M69.9159 20.0702C70.5775 20.7318 71.4597 20.5113 71.9008 20.0702C72.5625 19.4085 72.5625 18.5263 71.9008 18.0852L69.9159 16.1002C69.2542 15.4386 68.372 15.4386 67.9309 16.1002C67.2692 16.7619 67.2692 17.6441 67.9309 18.0852L69.9159 20.0702Z" fill="#FFC800"/>
<path d="M52.0495 58.6666C52.0495 57.7844 51.3879 57.1227 50.5057 57.1227C49.4029 57.1227 48.3001 56.9022 48.3001 53.8145V51.8295C50.9468 52.4912 53.8139 51.8295 55.7989 50.0651C59.1072 47.1979 59.1072 41.6841 56.0194 36.3909C53.5934 31.9799 47.859 28.2305 44.5508 26.4661C44.1097 26.2456 43.448 26.2456 43.0069 26.4661C39.6986 28.4511 33.7437 32.2004 31.5382 36.3909C28.6711 41.9047 28.6711 47.4185 31.9793 50.2856C34.1848 52.0501 36.8315 52.7117 39.4781 52.0501V54.035C39.4781 57.1227 38.3753 57.3433 37.2726 57.3433C36.3904 57.3433 35.7287 58.0049 35.7287 58.8871C35.7287 59.7694 36.3904 60.431 37.2726 60.431H50.2851C51.3879 60.2105 52.0495 59.5488 52.0495 58.6666ZM46.0946 48.7418C45.6535 48.9623 45.433 49.4034 45.433 50.0651V54.035C45.433 55.1378 45.6535 56.2405 45.8741 57.3433H41.9041C42.3453 56.2405 42.5658 55.1378 42.3453 54.035V50.0651C42.3453 49.624 42.1247 49.1829 41.6836 48.7418C41.2425 48.3007 40.8014 48.5212 40.3603 48.5212C38.1548 49.624 35.7287 49.4034 33.9643 47.8596C31.7588 45.8746 31.9793 41.9047 34.4054 37.9348C35.7287 35.2882 39.2575 32.421 44.1097 29.5538C48.9618 32.421 52.4906 35.5087 53.8139 37.9348C56.24 42.1252 56.24 46.0952 54.0345 47.8596C52.0495 49.1829 49.6234 49.4034 47.6385 48.5212C46.9768 48.3007 46.5357 48.5212 46.0946 48.7418Z" fill="#FFC800"/>
</svg>
