<svg width="162" height="81" viewBox="0 0 162 81" fill="none" xmlns="http://www.w3.org/2000/svg">
<path d="M45.7366 64.5577H43.215C42.5193 64.5577 41.9107 64.7308 41.4759 65.1635C41.0411 65.5962 40.7803 66.202 40.7803 66.9808V76.9327C40.7803 78.2308 41.0411 79.2693 41.6498 79.8751C42.2585 80.5674 43.3019 80.9135 44.7801 80.9135H47.9974V71.5674H44.2584V73.9039H45.6496V78.6635H44.6932C44.0845 78.6635 43.5628 78.577 43.3889 78.3174C43.128 78.0577 43.0411 77.6251 43.0411 76.9327V67.0674C43.0411 66.9808 43.128 66.8943 43.3019 66.8943H45.3888C45.5627 66.8943 45.6496 66.9808 45.6496 67.0674V70.2693H47.9974V66.9808C47.9974 66.202 47.8235 65.5962 47.3887 65.1635C47.0409 64.7308 46.4322 64.5577 45.7366 64.5577Z" fill="#FFC800"/>
<path d="M57.3018 64.5577L54.9541 81H57.2149L57.8235 76.9327H60.1713L60.78 81H63.0407L60.693 64.5577H57.3018ZM58.1714 74.5097L58.4322 71.9135L59.0409 66.375L59.6496 71.9135L59.9104 74.5097H58.1714Z" fill="#FFC800"/>
<path d="M77.823 64.5577L76.2578 73.2116L75.5622 78.9231L74.8666 73.2116L73.3014 64.5577H70.5189L69.7363 80.9135H72.0841L72.3449 69.6635L74.1709 80.9135H76.8665L78.6925 69.6635L79.0403 80.9135H81.388L80.5185 64.5577H77.823Z" fill="#FFC800"/>
<path d="M91.3878 64.5577H89.04V81H91.3878V64.5577Z" fill="#FFC800"/>
<path d="M103.995 72L104.169 74.6827L103.734 72.6924L101.3 64.5577H99.126V80.9135H101.387V73.4712L101.213 70.5289L101.735 72.7789L104.082 80.9135H106.256V64.5577H103.995V72Z" fill="#FFC800"/>
<path d="M118.952 64.5577H116.431C115.735 64.5577 115.126 64.7308 114.692 65.1635C114.257 65.5962 113.996 66.202 113.996 66.9808V76.9327C113.996 78.2308 114.257 79.2693 114.866 79.8751C115.474 80.5674 116.518 80.9135 117.996 80.9135H121.213V71.5674H117.474V73.9039H118.865V78.6635H117.909C117.3 78.6635 116.866 78.577 116.605 78.3174C116.344 78.0577 116.257 77.6251 116.257 76.9327V67.0674C116.257 66.9808 116.344 66.8943 116.518 66.8943H118.605C118.779 66.8943 118.865 66.9808 118.865 67.0674V70.2693H121.213V66.9808C121.213 66.202 121.039 65.5962 120.605 65.1635C120.257 64.7308 119.648 64.5577 118.952 64.5577Z" fill="#FFC800"/>
<path d="M160.341 0H109.213H105.822H56.2586H52.8674H1.73906C0.782577 0 0 0.778846 0 1.73077V54.2596C0 55.2115 0.782577 55.9904 1.73906 55.9904H52.8674H56.2586H105.735H109.126H160.254C161.211 55.9904 161.993 55.2115 161.993 54.2596V1.73077C162.08 0.778846 161.298 0 160.341 0ZM52.8674 52.6154H3.39117V3.375H52.8674V52.6154ZM105.822 52.6154H56.2586V3.375H105.735V52.6154H105.822ZM158.689 52.6154H109.213V3.375H158.689V52.6154Z" fill="#FFC800"/>
<path d="M23.4786 44.2211H26.6089V27.7788L14.6094 16.0961L12.4355 18.2596L23.4786 29.3365V44.2211Z" fill="#FFC800"/>
<path d="M29.6523 44.2211H32.7827V29.3365L43.8257 18.2596L41.6519 16.0961L29.6523 27.7788V44.2211Z" fill="#FFC800"/>
<path d="M39.39 13.9327L37.2161 11.7693L28.173 20.7693L19.043 11.7693L16.8691 13.9327L28.173 25.0097L39.39 13.9327Z" fill="#FFC800"/>
<path d="M76.4317 44.2211H79.4751V27.7788L67.4755 16.0961L65.3887 18.2596L76.4317 29.3365V44.2211Z" fill="#FFC800"/>
<path d="M82.6045 44.2211H85.6478V29.3365L96.6909 18.2596L94.5171 16.0961L82.6045 27.7788V44.2211Z" fill="#FFC800"/>
<path d="M92.3441 13.9327L90.1703 11.7693L81.0402 20.7693L71.9102 11.7693L69.7363 13.9327L81.0402 25.0097L92.3441 13.9327Z" fill="#FFC800"/>
<path d="M129.299 44.2211H132.342V27.7788L120.43 16.0961L118.256 18.2596L129.299 29.3365V44.2211Z" fill="#FFC800"/>
<path d="M135.473 44.2211H138.516V29.3365L149.559 18.2596L147.472 16.0961L135.473 27.7788V44.2211Z" fill="#FFC800"/>
<path d="M145.213 13.9327L143.039 11.7693L133.909 20.7693L124.779 11.7693L122.605 13.9327L133.909 25.0097L145.213 13.9327Z" fill="#FFC800"/>
</svg>
