<svg width="44" height="37" viewBox="0 0 44 37" fill="none" xmlns="http://www.w3.org/2000/svg">
<path d="M42.978 11.056L34.046 0.95103C34.0443 0.949344 34.0435 0.948501 34.0418 0.946815C33.8461 0.758828 33.7112 0.654297 33.4041 0.654297H9.7841C9.49478 0.654297 9.33873 0.7622 9.14557 0.946815C9.14472 0.948501 9.14304 0.949344 9.14135 0.95103L0.210246 11.056C-0.0698001 11.3721 -0.0698001 11.8535 0.208559 12.1704L20.9598 35.7751C20.9623 35.7784 20.9657 35.781 20.9682 35.7843C20.9826 35.8004 20.9978 35.8155 21.0129 35.8299C21.0172 35.8341 21.0222 35.8391 21.0264 35.8433C21.0467 35.861 21.0669 35.8787 21.0889 35.8948C21.0931 35.8981 21.0973 35.9007 21.1015 35.904C21.1192 35.9167 21.1378 35.9285 21.1563 35.9403C21.1631 35.9445 21.1698 35.9487 21.1774 35.9521C21.1951 35.9622 21.2137 35.9715 21.2331 35.9808C21.239 35.9833 21.2441 35.9867 21.25 35.9892C21.2744 36.0001 21.2997 36.0103 21.3259 36.0187C21.3293 36.0195 21.3326 36.0204 21.336 36.0212C21.3588 36.028 21.3815 36.0347 21.4043 36.0398C21.4119 36.0414 21.4195 36.0431 21.4271 36.0448C21.4473 36.049 21.4667 36.0516 21.487 36.0541C21.4946 36.0549 21.5022 36.0558 21.5098 36.0566C21.5368 36.0591 21.5646 36.0608 21.5924 36.0608C21.6203 36.0608 21.6473 36.0591 21.6751 36.0566C21.6827 36.0558 21.6903 36.0549 21.6979 36.0541C21.7181 36.0516 21.7384 36.0482 21.7578 36.0448C21.7653 36.0431 21.7729 36.0414 21.7805 36.0398C21.8033 36.0347 21.8269 36.028 21.8489 36.0212C21.8522 36.0204 21.8556 36.0195 21.8581 36.0187C21.8843 36.0103 21.9096 36.0001 21.934 35.9892C21.94 35.9867 21.9459 35.9833 21.9518 35.9808C21.9703 35.9715 21.9889 35.9622 22.0066 35.9521C22.0133 35.9479 22.0209 35.9437 22.0277 35.9394C22.0462 35.9276 22.0648 35.9158 22.0825 35.9032C22.0867 35.8998 22.0909 35.8973 22.0952 35.8939C22.1171 35.8779 22.1373 35.861 22.1576 35.8425C22.1626 35.8383 22.1669 35.8332 22.1719 35.829C22.1871 35.8147 22.2023 35.7987 22.2166 35.7835C22.2192 35.7801 22.2225 35.7776 22.2251 35.7742L42.9763 12.1687C43.2547 11.8577 43.2614 11.3755 42.978 11.056ZM33.599 2.99192L40.4744 10.7711H29.7079L33.599 2.99192ZM32.0393 2.34028L28.2385 9.93733L23.1706 2.34028H32.0393ZM26.7665 10.7711H16.4217L21.5941 3.01721L26.7665 10.7711ZM20.0176 2.34028L14.9498 9.93733L11.1489 2.34028H20.0176ZM9.58925 2.99192L13.4812 10.7711H2.71295L9.58925 2.99192ZM2.7062 12.457H14.2092L19.7527 31.8476L2.7062 12.457ZM23.4372 31.845L26.2857 21.8935C26.4139 21.4459 26.155 20.9789 25.7071 20.8516C25.2592 20.7234 24.7919 20.9822 24.6645 21.4299L21.5958 32.1519L15.9654 12.457H27.2203L26.5211 14.8638C26.3912 15.3106 26.6484 15.7784 27.0963 15.9082C27.5434 16.0381 28.0116 15.781 28.1415 15.3333L28.9774 12.4562H40.4829L23.4372 31.845Z" fill="#FFD90F"/>
</svg>
