<svg width="44" height="35" viewBox="0 0 44 35" fill="none" xmlns="http://www.w3.org/2000/svg">
<path d="M39.8138 7.283C37.953 7.283 36.4397 8.79533 36.4397 10.655C36.4397 11.004 36.4937 11.3445 36.5966 11.6708C35.8636 12.9108 34.9121 13.7614 34.0888 14.322C31.7321 11.6969 28.4711 9.91904 24.79 9.25477C24.4846 8.20355 24.2796 7.11609 24.186 6.06657C24.6862 5.46467 24.968 4.70092 24.968 3.91103C24.968 2.05139 23.4547 0.539062 21.5939 0.539062C19.7331 0.539062 18.2199 2.05139 18.2199 3.91103C18.2199 4.70092 18.5016 5.46467 19.0018 6.06657C18.9073 7.11609 18.7023 8.20271 18.3978 9.25477C14.7159 9.91904 11.4557 11.6969 9.09896 14.322C8.2757 13.7622 7.32421 12.9108 6.5912 11.6708C6.69411 11.3445 6.7481 11.004 6.7481 10.655C6.7481 8.79533 5.23483 7.283 3.37405 7.283C1.51326 7.283 0 8.79533 0 10.655C0 11.9195 0.700958 13.0558 1.79078 13.6324L7.01211 29.4453C6.15848 29.8525 5.56718 30.7233 5.56718 31.7298C5.56718 33.1241 6.70255 34.2588 8.09771 34.2588H35.0901C36.4853 34.2588 37.6206 33.1241 37.6206 31.7298C37.6206 30.7241 37.0293 29.8533 36.1765 29.4461L41.424 13.6181C42.5071 13.0347 43.1878 11.9119 43.1878 10.655C43.1878 8.79533 41.6745 7.283 39.8138 7.283ZM32.5587 15.1523C31.6941 15.5131 30.8093 15.7129 30.029 15.7129C28.3901 15.7129 26.6381 13.9157 25.4504 11.1169C28.2281 11.7955 30.6895 13.1915 32.5587 15.1523ZM21.5939 2.22505C22.5243 2.22505 23.2809 2.98121 23.2809 3.91103C23.2809 4.85771 22.5091 5.59702 21.5939 5.59702C20.6787 5.59702 19.9069 4.85603 19.9069 3.91103C19.9069 2.98121 20.6635 2.22505 21.5939 2.22505ZM17.7374 11.1169C16.5497 13.9148 14.7977 15.7129 13.1588 15.7129C12.3785 15.7129 11.4937 15.5131 10.6291 15.1523C12.4983 13.1915 14.9597 11.7955 17.7374 11.1169ZM2.84264 12.255C2.84179 12.255 2.84095 12.2541 2.8401 12.2541C2.15011 12.0257 1.68702 11.3825 1.68702 10.655C1.68702 9.72515 2.44365 8.96899 3.37405 8.96899C4.30444 8.96899 5.06107 9.72515 5.06107 10.655C5.06107 11.8082 3.92149 12.6166 2.84264 12.255ZM34.4811 29.2008H24.968C24.5023 29.2008 24.1244 29.5785 24.1244 30.0438C24.1244 30.5091 24.5023 30.8868 24.968 30.8868H35.0842C35.0859 30.8868 35.0884 30.8868 35.0901 30.8868C35.0909 30.8868 35.0918 30.8868 35.0926 30.8868C35.5566 30.8885 35.9336 31.2662 35.9336 31.7298C35.9336 32.1943 35.5549 32.5728 35.0901 32.5728H8.09771C7.63294 32.5728 7.2542 32.1943 7.2542 31.7298C7.2542 31.2653 7.63294 30.8868 8.09771 30.8868H18.2199C18.6855 30.8868 19.0634 30.5091 19.0634 30.0438C19.0634 29.5785 18.6855 29.2008 18.2199 29.2008H8.70757L3.69121 14.0101C4.39385 13.9426 5.05264 13.656 5.57814 13.2042C6.42419 14.397 7.53678 15.4036 8.85013 16.1538C8.85181 16.1547 8.8535 16.1555 8.85603 16.1572C8.85941 16.1589 8.86194 16.1606 8.86531 16.1622C10.2664 16.9597 11.7915 17.3989 13.1588 17.3989C16.3996 17.3989 18.742 13.71 19.8546 10.2588C19.8554 10.2571 19.8554 10.2554 19.8563 10.2546C19.8596 10.2436 19.863 10.2335 19.8664 10.2225C20.1903 9.21262 20.4299 8.16225 20.5775 7.12537C20.9022 7.22821 21.2447 7.283 21.5939 7.283C21.9431 7.283 22.2856 7.22821 22.612 7.12537C22.7596 8.16225 22.9992 9.21346 23.3231 10.2225C23.3256 10.2318 23.329 10.2411 23.3315 10.2503C23.3324 10.2529 23.3332 10.2554 23.3341 10.2579C24.4458 13.71 26.7882 17.3989 30.029 17.3989C31.3972 17.3989 32.9214 16.9589 34.3233 16.1614C34.3259 16.1597 34.3292 16.158 34.3318 16.1572C34.3335 16.1563 34.336 16.1555 34.3377 16.1538C35.651 15.4044 36.7645 14.397 37.6097 13.2042C38.1394 13.6602 38.8058 13.9485 39.516 14.0126L34.4811 29.2008ZM40.4456 12.2179C40.4321 12.2229 40.4194 12.2272 40.4067 12.2331C39.3068 12.6495 38.1267 11.8251 38.1267 10.655C38.1267 9.72515 38.8834 8.96899 39.8138 8.96899C40.7442 8.96899 41.5008 9.72515 41.5008 10.655C41.5008 11.3471 41.0875 11.9582 40.4456 12.2179Z" fill="#FFD90F"/>
</svg>
