<svg width="44" height="41" viewBox="0 0 44 41" fill="none" xmlns="http://www.w3.org/2000/svg">
<path d="M37.0184 15.4624C37.0184 6.90246 30.1159 0 21.5939 0C13.0719 0 6.16945 6.90246 6.16945 15.4245C6.16945 15.4245 6.16945 15.4245 6.16945 15.4633C2.73804 15.6556 0 18.5092 0 21.9794V22.7504C0 26.3749 2.93036 29.3053 6.55493 29.3053H6.90161L9.63965 33.6629C11.5679 36.7476 14.845 38.5603 18.4704 38.5603H19.0102C19.3569 39.8711 20.553 40.8741 21.9794 40.8741C23.6757 40.8741 25.0641 39.4856 25.0641 37.7893C25.0641 36.093 23.6757 34.7046 21.9794 34.7046C20.553 34.7046 19.3569 35.7075 19.0102 37.0184H18.4704C15.3857 37.0184 12.5709 35.4376 10.9513 32.8151L8.71516 29.3061H9.25501C10.1036 29.3061 10.7978 28.6119 10.7978 27.7634V16.9664C10.7978 16.1178 10.1036 15.4236 9.25501 15.4236H7.71223C7.71223 7.75019 13.9205 1.54194 21.5939 1.54194C29.2673 1.54194 35.4756 7.75019 35.4756 15.4236H33.9328C33.0842 15.4236 32.39 16.1178 32.39 16.9664V27.7634C32.39 28.6119 33.0842 29.3061 33.9328 29.3061H36.632C40.2566 29.3061 43.187 26.3758 43.187 22.7512V21.9802C43.1878 18.5092 40.4498 15.6556 37.0184 15.4624ZM21.9794 36.2465C22.828 36.2465 23.5222 36.9408 23.5222 37.7893C23.5222 38.6379 22.828 39.3321 21.9794 39.3321C21.1308 39.3321 20.4366 38.6379 20.4366 37.7893C20.4366 36.9408 21.1308 36.2465 21.9794 36.2465ZM9.25417 16.9664V27.7634H6.55493C3.77893 27.7634 1.54194 25.5272 1.54194 22.7504V21.9794C1.54194 19.2034 3.77809 16.9664 6.55493 16.9664H9.25417ZM41.645 22.7504C41.645 25.5264 39.4089 27.7634 36.632 27.7634H33.9328V16.9664H36.632C39.408 16.9664 41.645 19.2025 41.645 21.9794V22.7504Z" fill="#FFD90F"/>
<path d="M27.995 5.82271C27.9183 5.78391 27.8019 5.70715 27.6863 5.62955C27.5708 5.55279 27.4552 5.47519 27.3776 5.43638C27.0309 5.20526 26.529 5.32082 26.3367 5.70631C26.1444 6.09179 26.2211 6.51608 26.6066 6.7472C26.6834 6.786 26.7998 6.86276 26.9154 6.94037C27.0309 7.01713 27.1465 7.09473 27.262 7.13353C27.3776 7.21029 27.532 7.24909 27.6475 7.24909C27.9174 7.24909 28.1486 7.13353 28.3029 6.86361C28.4961 6.51692 28.3805 6.05383 27.995 5.82271Z" fill="#FFD90F"/>
<path d="M21.5938 3.85571C18.3159 3.85571 15.2312 5.28209 13.1106 7.75021C12.8407 8.05893 12.8795 8.55998 13.1874 8.8299C13.3418 8.94546 13.4961 9.02307 13.6884 9.02307C13.9196 9.02307 14.1127 8.94631 14.2671 8.75314C16.1186 6.63255 18.779 5.3985 21.5938 5.3985C22.288 5.3985 22.9823 5.47526 23.6765 5.62962C24.1008 5.70638 24.4862 5.43645 24.6018 5.05097C24.7174 4.66548 24.4086 4.2412 24.0231 4.12564C23.2134 3.93332 22.4036 3.85571 21.5938 3.85571Z" fill="#FFD90F"/>
</svg>
